# xmcd
#
# Track frame offsets:
#  222
#  19865
#  54730
#
# Disc length: 1041 seconds
#
# Revision: 0
# Processed by: cddbd v1.5.1PL2 Copyright (c) Steve Scherf et al.
# Submitted via: Collectorz.com_Music_Collector 6.9
#
DISCID=20040f03
DTITLE=Babyface - It's No Crime
DYEAR=1989
DGENRE=
TTITLE0=7" Version
TTITLE1=12" Version
TTITLE2=Instrumental
EXTD=
EXTT0=
EXTT1=
EXTT2=
PLAYORDER=
